<svg width="500" height="500" viewBox="0 0 500 500" fill="none" xmlns="http://www.w3.org/2000/svg">
<g id="CrownIcon">
<g id="Section-3_CrownIcon">
<path id="Polygon 3" d="M217.391 250L54.3478 466.506L54.3478 33.4937L217.391 250Z" fill="#FCD357"/>
<path id="Polygon 5" d="M244.565 150L362.232 300H126.899L244.565 150Z" fill="#FCD357"/>
<path id="Polygon 4" d="M282.609 250L445.652 33.4937V466.506L282.609 250Z" fill="#FCD357"/>
<rect id="Rectangle 1" x="54.348" y="240" width="391.304" height="220" fill="#FCD357"/>
</g>
<ellipse id="Ellipse 1" cx="250" cy="346" rx="49" ry="48" fill="#FF4A5D"/>
<path id="Ellipse 2" d="M72 298C59.2696 298 47.0606 303.162 38.0589 312.352C29.0571 321.541 24 334.004 24 347C24 359.996 29.0571 372.459 38.0589 381.648C47.0606 390.838 59.2696 396 72 396L72 347L72 298Z" fill="#FF4A5D"/>
<path id="Ellipse 3" d="M428 399C440.73 399 452.939 393.838 461.941 384.648C470.943 375.459 476 362.996 476 350C476 337.004 470.943 324.541 461.941 315.352C452.939 306.162 440.73 301 428 301L428 350V399Z" fill="#FF4A5D"/>
</g>
</svg>
